<svg width="321" height="128" viewBox="0 0 321 128" fill="none" xmlns="http://www.w3.org/2000/svg">
<mask id="mask0_1_330" style="mask-type:luminance" maskUnits="userSpaceOnUse" x="32" y="0" width="240" height="128">
<path d="M272 0H32V128H272V0Z" fill="white"/>
</mask>
<g mask="url(#mask0_1_330)">
<path d="M44.4748 51.794C44.1197 49.8455 44.497 47.7984 45.6066 45.6469C46.7052 43.5011 47.9757 41.396 49.4238 39.3373C50.8775 37.267 53.0857 34.698 56.0595 31.636C59.0445 28.574 62.3069 25.715 65.8467 23.0532C69.3809 20.3972 73.8417 17.8281 79.2291 15.3519C84.6275 12.8814 90.3367 11.0315 96.3621 9.80783C101.566 8.75817 106.948 8.75237 112.496 9.78463C115.276 10.3414 117.695 11.478 119.754 13.1946C121.806 14.9111 123.088 17.138 123.593 19.8752C124.375 24.1318 122.705 28.8756 118.577 34.1181C114.449 39.3489 106.748 45.8034 95.4743 53.4874C94.3203 54.0615 93.7932 54.6356 93.8986 55.2039C93.943 55.3895 94.1039 55.5751 94.3869 55.7606C104.917 64.4362 113.362 70.2702 119.709 73.251C120.475 73.686 120.913 74.1905 121.019 74.7588C121.285 76.1506 119.443 77.2525 115.492 78.0528C111.553 78.8414 108.041 78.1687 104.951 76.0346C91.6461 66.0484 83.185 59.2808 79.5619 55.7375C79.4565 55.4939 79.3289 55.3837 79.1847 55.4127C79.0349 55.4475 78.8851 55.6099 78.7408 55.8998C71.2507 70.5022 67.1172 79.9201 66.3349 84.1535C66.5124 85.1742 66.4348 85.7251 66.113 85.8005C65.7856 85.8643 65.2252 85.7773 64.4263 85.5453C63.6274 85.3133 62.7285 84.7334 61.7409 83.8056C60.7645 82.8777 60.1264 81.6425 59.8323 80.0941C59.5494 78.5515 59.7935 76.516 60.5647 73.9933C66.7455 59.1822 73.814 46.366 81.7591 35.5563C85.1324 30.9981 88.417 27.3098 91.6128 24.4914C92.0566 23.8767 92.506 23.5171 92.9665 23.4243C93.4215 23.3315 94.0096 23.4475 94.7198 23.7723C95.4411 24.0854 95.8572 24.5378 95.9626 25.1409C96.0791 25.7324 95.9293 26.3007 95.5187 26.8575C89.1271 36.8321 84.8328 44.1855 82.6468 48.9176C82.0254 49.9557 81.7424 50.6342 81.8034 50.9589C81.8589 51.2721 82.0309 51.3939 82.3139 51.3301L82.6912 51.2605C89.5821 47.6766 95.0804 44.3884 99.1806 41.4018C107.864 34.9705 114.194 28.748 118.178 22.7284C119.032 21.5106 119.376 20.432 119.199 19.5041C118.932 18.0369 117.545 17.1554 115.049 16.8596C112.563 16.5697 108.79 16.9408 103.73 17.9731C98.6701 18.9938 92.617 21.0467 85.5763 24.1202C78.5466 27.1822 71.7167 31.2185 65.0921 36.229C58.4786 41.2279 53.8347 46.3833 51.1549 51.7012C50.7887 52.3855 50.6222 52.8321 50.6666 53.0466C50.6999 53.267 51.0439 53.3134 51.7097 53.1858C52.3755 53.0466 54.3063 51.8346 57.5021 49.5439C60.6979 47.259 63.3888 45.1017 65.5803 43.072C68.9648 39.5635 71.1397 37.7078 72.1051 37.5048C72.4713 37.4468 72.671 37.499 72.7043 37.6672C72.732 37.8237 72.4602 38.4501 71.8832 39.5461C71.3061 40.6305 70.4684 42.0456 69.3753 43.7911C68.2768 45.5251 66.8953 47.491 65.2252 49.6831C61.4358 54.711 57.6241 57.6106 53.7958 58.3819C51.743 58.7994 49.9343 58.4631 48.3807 57.3612C46.8272 56.2652 45.8063 55.0531 45.3181 53.7193L44.4748 51.794Z" fill="#D75B5B"/>
<path d="M137.794 40.3011C136.224 40.5794 133.844 42.7773 130.648 46.889C127.452 50.989 125.921 53.4247 126.054 54.196C126.065 54.3235 126.17 54.3583 126.365 54.3119C127.68 54.0684 130.071 52.0155 133.533 48.1648C136.995 44.3141 138.626 41.8205 138.438 40.6722C138.377 40.3475 138.16 40.2257 137.794 40.3011ZM123.546 74.4004C118.869 75.2644 116.028 72.7186 115.024 66.7454C114.391 62.9875 115.274 58.7077 117.687 53.8944C120.095 49.0869 123.197 44.9404 126.986 41.4609C130.787 37.9814 134.332 35.9401 137.616 35.337C139.081 35.0586 140.535 35.4066 141.988 36.3808C143.453 37.3551 144.28 38.4163 144.474 39.5588C144.829 41.6639 143.792 44.3025 141.367 47.4689C138.954 50.6411 136.313 53.3261 133.444 55.5182C130.587 57.6987 128.656 58.8817 127.652 59.0673C126.659 59.2529 125.843 58.9223 125.211 58.0698C124.928 57.919 124.572 57.8784 124.145 57.9538C123.713 58.035 123.152 59.0093 122.459 60.8766C121.776 62.7498 121.526 64.2112 121.704 65.2608C121.882 66.3163 122.359 66.902 123.147 67.0238C127.763 66.1771 132.534 63.8342 137.461 59.9952C142.399 56.1445 149.046 49.7886 157.39 40.9274C157.967 40.2779 158.855 39.321 160.054 38.051C161.252 36.7868 161.951 36.0271 162.162 35.7777C162.794 36.1373 163.166 36.636 163.272 37.2855C163.388 37.9234 163.211 38.5323 162.739 39.118C160.22 42.8759 156.88 47.1789 152.708 52.0155C148.535 56.8404 143.614 61.5957 137.949 66.2815C132.296 70.9672 127.496 73.6755 123.546 74.4004Z" fill="#D75B5B"/>
<path d="M182.303 16.8456L186.941 15.941C192.989 14.8913 197.516 15.0247 200.524 16.3353C201.944 16.5557 202.704 17.008 202.809 17.7039C202.898 18.2143 202.355 18.6724 201.189 19.0725C200.035 19.4611 196.002 20.6673 189.094 22.6912C182.181 24.7036 177.432 25.9968 174.846 26.5651C173.692 26.8319 171.351 29.3951 167.833 34.2664C164.31 39.1377 161.053 44.3802 158.068 49.9938C155.078 55.6075 153.741 59.4059 154.051 61.3835C154.107 61.7082 154.307 61.9634 154.651 62.149C154.989 62.3229 155.389 62.3693 155.849 62.2881C156.304 62.1953 156.992 61.8706 157.913 61.3139C168.344 52.1743 178.336 42.4317 187.896 32.0859C188.528 32.4107 188.9 32.8978 189.005 33.5473C189.105 34.1852 188.9 34.8579 188.384 35.5654C187.862 36.2787 187.102 37.3168 186.098 38.6738C185.088 40.0192 183.202 42.4723 180.439 46.0272C177.687 49.5879 175.074 52.7891 172.605 55.6307C165.947 63.4596 161.175 68.1453 158.29 69.6879C157.253 70.1982 155.982 70.581 154.473 70.8477C152.975 71.1087 151.477 70.552 149.968 69.1776C148.47 67.8032 147.51 65.7445 147.083 63.0072C146.656 60.2584 147.71 56.0134 150.256 50.2722C152.814 44.5368 156.592 38.4534 161.597 32.0163C162.096 31.477 162.313 31.0131 162.241 30.6245C162.18 30.2244 161.508 30.1374 160.221 30.3694L154.495 31.5756C146.406 32.9848 142.078 32.7528 141.512 30.8797C139.576 30.8217 138.55 30.4042 138.427 29.6271C138.383 29.3835 138.483 29.2269 138.716 29.1631C138.955 29.0877 139.16 29.0182 139.337 28.9544C139.515 28.879 139.815 28.7688 140.225 28.6296C140.641 28.4904 143.926 27.4002 150.079 25.3589C156.232 23.3175 163.284 21.2878 171.229 19.2581L176.133 9.37628C176.383 8.55859 177.604 7.96128 179.795 7.59013C181.998 7.20738 183.174 7.48574 183.324 8.42521C183.379 8.73837 183.224 9.35308 182.858 10.281L181.127 14.0156C180.977 15.1001 180.91 15.8888 180.927 16.3817C180.999 16.834 181.46 16.9848 182.303 16.8456Z" fill="#D75B5B"/>
<path d="M176.401 44.8716C179.419 41.9198 182.56 38.7419 185.833 35.3377C183.658 34.2417 182.194 33.0645 181.439 31.8118C181.2 31.3943 181.067 31.1043 181.04 30.9304C180.845 29.6487 181.112 28.7383 181.839 28.1931C182.576 27.6364 183.836 27.2189 185.611 26.9405C186.277 26.8361 188.374 27.3755 191.914 28.5643C195.465 29.7589 197.684 30.2808 198.572 30.1417C199.46 30.0025 200.658 29.5328 202.167 28.7267C203.676 27.9264 204.903 27.445 205.851 27.2885C206.795 27.1377 207.521 27.2595 208.026 27.6596C209.857 29.5038 210.806 30.652 210.867 31.1159C210.939 31.5683 210.789 31.9626 210.423 32.299C210.068 32.6411 208.947 33.7546 207.072 35.6393C205.191 37.5124 203.366 39.4146 201.59 41.3457C199.826 43.2652 198.2 45.353 196.708 47.6088C195.226 49.8531 194.577 51.5871 194.755 52.8049C194.783 52.9905 194.944 53.0601 195.243 53.0137C198.539 52.4918 208.626 43.7234 225.492 26.7085C225.919 26.6332 226.191 26.9985 226.313 27.7988C226.43 28.5875 224.427 31.719 220.299 37.1935C216.171 42.6563 211.389 48.1192 205.962 53.5936C200.547 59.0681 196.469 62.0314 193.734 62.478C189.456 63.1623 186.993 61.2601 186.344 56.7716C185.989 54.3591 186.421 51.9002 187.653 49.395C188.879 46.8781 191.714 43.3058 196.153 38.6781C195.099 38.8521 193.651 38.8057 191.803 38.5389C189.95 38.2779 188.724 37.8082 188.119 37.1239C186.754 38.8405 184.374 41.7343 180.973 45.7995C180.157 46.652 179.02 47.2029 177.555 47.4465C176.091 47.6784 175.33 47.5566 175.269 47.0753C175.197 46.5998 175.575 45.8633 176.401 44.8716Z" fill="#D75B5B"/>
<path d="M218.045 52.2947C219.998 52.0047 222.223 50.2997 224.725 47.1914C227.239 44.083 228.487 42.0127 228.476 40.9746C227.66 40.4353 226.728 39.3857 225.68 37.8199C224.625 36.2599 224.065 35.477 223.993 35.477C222.351 37.5995 220.958 39.9772 219.821 42.6216C218.056 47.0754 217.28 50.0678 217.49 51.5988C217.546 52.1091 217.735 52.3411 218.045 52.2947ZM234.69 25.8503C234.069 25.9431 232.926 27.1262 231.272 29.3994C229.613 31.6611 228.837 33.1747 228.942 33.946C228.97 34.149 229.208 34.5143 229.652 35.0363C230.096 35.5466 230.412 35.7902 230.607 35.7554C231.638 35.6046 232.637 34.12 233.603 31.3016C234.562 28.489 235.012 26.871 234.956 26.4534C234.895 26.0359 234.807 25.8387 234.69 25.8503ZM236.554 38.2142C238.269 37.9707 240.799 36.4861 244.144 33.7604C247.484 31.0406 250.386 28.3962 252.844 25.8271L256.506 21.8605C257.127 22.2316 257.471 22.742 257.549 23.3915C257.638 24.0294 257.443 24.6383 256.972 25.224C248.194 36.4861 241.204 42.4998 235.999 43.2711C235.628 43.3175 235.073 43.3407 234.335 43.3407C228.565 52.7296 223.2 57.7923 218.245 58.5346C214.855 58.4998 212.619 57.5893 211.521 55.7974C210.888 54.9043 210.466 53.7213 210.256 52.2483C209.695 48.0439 211.343 42.6796 215.205 36.1497C219.066 29.6082 224.326 24.4353 230.984 20.6311C231.605 20.5383 232.082 20.6195 232.426 20.863C232.765 21.1124 233.059 21.2342 233.314 21.2342C233.564 21.2342 233.858 21.0602 234.202 20.7006C234.557 20.3469 235.073 20.1091 235.755 19.9815C236.432 19.8424 237.187 20.1381 238.019 20.863C239.112 21.5589 239.739 22.51 239.905 23.7162C240.394 27.3059 239.273 32.1367 236.554 38.2142Z" fill="#D75B5B"/>
</g>
<mask id="mask1_1_330" style="mask-type:luminance" maskUnits="userSpaceOnUse" x="0" y="59" width="319" height="63">
<path d="M0 59.4062H318.159V121.759H0V59.4062Z" fill="white"/>
</mask>
<g mask="url(#mask1_1_330)">
<mask id="mask2_1_330" style="mask-type:luminance" maskUnits="userSpaceOnUse" x="-2" y="57" width="325" height="73">
<path d="M-1.93079 102.807L318.986 57.4112L322.415 83.8904L1.49804 129.292L-1.93079 102.807Z" fill="white"/>
</mask>
<g mask="url(#mask2_1_330)">
<mask id="mask3_1_330" style="mask-type:luminance" maskUnits="userSpaceOnUse" x="-2" y="57" width="325" height="73">
<path d="M-1.93079 102.807L318.986 57.4112L322.415 83.8904L1.49804 129.292L-1.93079 102.807Z" fill="white"/>
</mask>
<g mask="url(#mask3_1_330)">
<path d="M2.14164 116.395C20.7061 110.346 68.4988 100.076 145.514 85.5895L145.536 85.5837C163.047 82.4522 184.019 79.077 208.459 75.4467H208.465C214.396 74.5769 221.292 73.5968 229.154 72.5123H229.16C284.903 64.9618 313.471 61.0589 314.858 60.8038C313.343 61.0821 312.678 62.039 312.861 63.6686L312.877 63.7614C313.11 65.3677 313.981 66.1042 315.496 65.9767V65.9709C315.496 65.9767 315.491 65.9767 315.485 65.9767C314.109 66.1042 312.894 65.0372 312.772 63.599C312.65 62.1608 313.671 60.8908 315.047 60.7632C315.058 60.7632 315.074 60.7632 315.086 60.7632C316.672 60.624 317.588 61.3605 317.821 62.9669L317.832 63.0597C318.015 64.695 317.316 65.6635 315.724 65.9535C314.259 66.2202 285.619 70.1405 229.803 77.7026L229.809 77.6968C221.958 78.7813 215.073 79.7613 209.158 80.6254H209.164C184.768 84.2499 163.84 87.6192 146.38 90.7392L146.402 90.7334C69.5863 105.191 21.9989 115.403 3.62858 121.388C2.30809 121.817 0.909931 121.046 0.493811 119.671C0.0832406 118.291 0.821159 116.824 2.14164 116.395Z" fill="#D75B5B" fill-opacity="0.996"/>
</g>
</g>
</g>
<mask id="mask4_1_330" style="mask-type:luminance" maskUnits="userSpaceOnUse" x="4" y="56" width="317" height="72">
<path d="M4.26106 56.437H321V127.697H4.26106V56.437Z" fill="white"/>
</mask>
<g mask="url(#mask4_1_330)">
<mask id="mask5_1_330" style="mask-type:luminance" maskUnits="userSpaceOnUse" x="-2" y="57" width="325" height="73">
<path d="M-1.93079 102.807L318.986 57.4112L322.415 83.8904L1.49804 129.292L-1.93079 102.807Z" fill="white"/>
</mask>
<g mask="url(#mask5_1_330)">
<mask id="mask6_1_330" style="mask-type:luminance" maskUnits="userSpaceOnUse" x="-2" y="57" width="325" height="73">
<path d="M-1.93079 102.807L318.986 57.4112L322.415 83.8904L1.49804 129.292L-1.93079 102.807Z" fill="white"/>
</mask>
<g mask="url(#mask6_1_330)">
<path d="M7.31815 122.374C37.0069 112.973 87.6569 100.511 159.263 84.9864L159.279 84.9806C199.41 76.5138 251.963 67.467 316.939 57.852C318.309 57.649 319.574 58.6465 319.768 60.0789C319.962 61.5055 319.008 62.8277 317.638 63.0307C252.762 72.6341 200.303 81.6577 160.267 90.1071H160.278C88.8221 105.603 38.3163 118.024 8.76625 127.379C7.44576 127.802 6.0476 127.019 5.64812 125.639C5.24865 124.253 5.99212 122.791 7.31815 122.374Z" fill="#D75B5B" fill-opacity="0.996"/>
</g>
</g>
</g>
<mask id="mask7_1_330" style="mask-type:luminance" maskUnits="userSpaceOnUse" x="7" y="65" width="302" height="62">
<path d="M7.10179 65.3445H308.217V126.213H7.10179V65.3445Z" fill="white"/>
</mask>
<g mask="url(#mask7_1_330)">
<mask id="mask8_1_330" style="mask-type:luminance" maskUnits="userSpaceOnUse" x="-2" y="57" width="325" height="73">
<path d="M-1.93076 102.807L318.986 57.4112L322.415 83.8904L1.49807 129.292L-1.93076 102.807Z" fill="white"/>
</mask>
<g mask="url(#mask8_1_330)">
<mask id="mask9_1_330" style="mask-type:luminance" maskUnits="userSpaceOnUse" x="-2" y="57" width="325" height="73">
<path d="M-1.93076 102.807L318.986 57.4112L322.415 83.8904L1.49807 129.292L-1.93076 102.807Z" fill="white"/>
</mask>
<g mask="url(#mask9_1_330)">
<path d="M9.22122 119.7C27.758 112.324 68.1715 102.929 130.456 91.4989H130.478C165.998 85.375 193.196 80.956 212.071 78.2304H212.077C243.618 73.7186 274.417 69.8389 304.472 66.5914C305.848 66.4464 307.079 67.4903 307.218 68.9227C307.362 70.3609 306.364 71.6483 304.988 71.7933C274.983 75.035 244.24 78.9089 212.754 83.4148C193.923 86.1289 166.77 90.5421 131.294 96.6544H131.322C69.3477 108.021 29.2393 117.334 10.9967 124.589C9.70947 125.099 8.26137 124.421 7.77313 123.076C7.27933 121.724 7.92848 120.211 9.22122 119.7Z" fill="#D75B5B" fill-opacity="0.996"/>
</g>
</g>
</g>
<path d="M137.856 104.34C137.845 104.143 137.956 103.958 138.189 103.784L140.275 102.554C140.319 102.525 140.386 102.502 140.475 102.485C140.574 102.473 140.674 102.508 140.763 102.601C140.863 102.682 140.963 102.711 141.052 102.693C141.14 102.682 141.318 102.618 141.584 102.508C141.85 102.403 142.217 102.264 142.694 102.09C143.165 101.905 143.681 101.719 144.247 101.534C145.623 101.104 147.066 100.78 148.575 100.559C150.35 100.327 151.638 100.298 152.437 100.466C152.758 100.548 153.036 100.675 153.258 100.861C153.491 101.035 153.635 101.267 153.679 101.557C153.69 101.742 153.591 101.852 153.369 101.881C150.217 102.392 147.654 102.949 145.69 103.552C145.479 103.615 145.385 103.702 145.401 103.807C145.401 103.842 145.407 103.876 145.424 103.923C145.435 103.958 145.401 104.027 145.313 104.132L143.471 106.846C143.393 106.956 143.36 107.031 143.36 107.078C143.371 107.124 143.393 107.147 143.426 107.147C143.454 107.136 143.537 107.101 143.67 107.054C144.469 106.886 145.213 106.753 145.912 106.66C146.622 106.567 147.027 106.561 147.132 106.637C147.721 106.996 148.076 107.234 148.198 107.356C148.314 107.466 148.375 107.565 148.375 107.657C148.403 107.831 148.275 107.953 147.998 108.029C144.713 108.835 142.938 109.252 142.672 109.281C142.405 109.299 142.233 109.316 142.161 109.328C141.967 109.362 141.751 109.554 141.518 109.908L139.609 113.433C139.565 113.544 139.542 113.619 139.542 113.665C139.553 113.712 139.587 113.735 139.631 113.735C139.687 113.723 139.77 113.683 139.875 113.619C141.029 113.265 142.117 113.016 143.138 112.877C144.17 112.738 144.946 112.668 145.468 112.668C146.161 112.575 146.966 113.016 147.887 113.99C147.976 114.071 148.02 114.147 148.02 114.222C148.031 114.303 147.942 114.356 147.754 114.385C144.586 114.802 142.194 115.196 140.585 115.568C140.524 115.579 140.441 115.597 140.341 115.614C139.809 115.689 139.415 115.597 139.165 115.336C139.121 115.272 139.054 115.243 138.965 115.243C138.877 115.254 138.804 115.318 138.743 115.428C138.688 115.533 138.644 115.591 138.61 115.591C138.566 115.591 138.488 115.556 138.366 115.498C138.233 115.434 138.1 115.312 137.967 115.127C137.822 114.953 137.734 114.762 137.7 114.547C137.673 114.315 137.689 114.106 137.745 113.921C137.806 113.723 137.889 113.474 137.989 113.178C138.078 112.871 138.316 112.332 138.699 111.555C139.065 110.783 139.476 110.111 139.92 109.536C139.975 109.478 139.997 109.415 139.986 109.351C139.986 109.293 139.92 109.27 139.787 109.281C139.653 109.299 139.509 109.27 139.365 109.188C139.232 109.096 139.148 108.968 139.121 108.794C139.104 108.609 139.304 108.423 139.72 108.237L140.719 107.82C140.73 107.82 140.741 107.82 140.741 107.82C140.946 107.791 141.129 107.628 141.296 107.333C142.583 105.651 143.371 104.7 143.67 104.48C143.787 104.375 143.837 104.294 143.826 104.248C143.826 104.201 143.787 104.19 143.715 104.201C143.637 104.201 143.57 104.219 143.515 104.248C142.361 104.607 141.434 104.827 140.741 104.92C140.042 105.013 139.531 105.054 139.209 105.036C138.899 105.025 138.666 104.978 138.499 104.897C138.133 104.729 137.933 104.572 137.9 104.433L137.856 104.34Z" fill="#D75B5B"/>
<path d="M155.375 105.668C155.475 105.656 155.647 105.685 155.885 105.76C156.135 105.824 156.268 105.923 156.285 106.062C156.296 106.155 156.274 106.248 156.218 106.34L155.064 108.614C154.914 108.846 154.842 108.979 154.842 109.008C154.853 109.025 154.87 109.031 154.887 109.031L154.975 108.938C156.307 107.703 157.394 106.607 158.238 105.644C158.382 105.494 158.515 105.407 158.637 105.389C158.77 105.378 158.859 105.378 158.904 105.389L159.458 105.482C159.592 105.528 159.664 105.61 159.68 105.714C159.691 105.824 159.68 105.917 159.636 105.992C159.425 106.317 159.192 106.677 158.926 107.059C158.659 107.448 158.46 107.744 158.326 107.941C158.204 108.144 158.06 108.37 157.883 108.614C157.716 108.863 157.6 109.054 157.528 109.194C157.467 109.321 157.394 109.466 157.306 109.634C157.228 109.791 157.184 109.93 157.172 110.052C157.128 110.365 157.117 110.626 157.15 110.841C157.161 110.951 157.239 110.997 157.372 110.98C157.516 110.968 157.772 110.841 158.127 110.609C158.493 110.377 158.926 110.04 159.414 109.588C159.913 109.124 160.568 108.486 161.367 107.663C162.177 106.827 162.887 106.12 163.497 105.528C163.614 105.61 163.681 105.714 163.697 105.853C163.708 105.981 163.675 106.103 163.586 106.224C163.231 106.706 162.771 107.291 162.21 107.987C161.661 108.683 160.818 109.634 159.68 110.841C158.554 112.047 157.738 112.685 157.239 112.743C156.263 112.882 155.708 112.406 155.575 111.304C155.514 110.904 155.602 110.458 155.841 109.959L156.529 108.66C156.584 108.538 156.618 108.469 156.618 108.451C156.618 108.44 156.579 108.463 156.507 108.521C154.537 110.748 153.278 112.07 152.734 112.488C152.628 112.569 152.501 112.615 152.357 112.627C151.929 112.69 151.691 112.522 151.646 112.116C151.635 111.977 151.646 111.85 151.691 111.722C152.534 110.719 153.1 109.907 153.4 109.286C153.666 108.915 153.932 108.428 154.199 107.825C154.465 107.21 154.692 106.7 154.887 106.294C155.075 105.894 155.242 105.685 155.375 105.668Z" fill="#D75B5B"/>
<path d="M171.004 104.342C171.209 104.47 171.32 104.591 171.337 104.713C171.348 104.841 171.314 104.963 171.226 105.084C171.137 105.212 170.649 106.099 169.761 107.752C168.873 109.411 168.274 110.547 167.963 111.162C167.664 111.777 167.453 112.229 167.32 112.507C167.198 112.786 166.948 113.284 166.565 114.015C166.177 114.74 165.772 115.395 165.344 115.987C164.928 116.59 164.423 117.181 163.813 117.773C163.192 118.359 162.581 118.759 161.971 118.979C161.705 119.008 161.438 118.985 161.172 118.91C160.628 118.77 160.318 118.388 160.24 117.773C160.151 116.996 160.728 115.998 161.971 114.781C163.214 113.557 164.179 112.902 164.856 112.809C164.956 112.791 165.012 112.797 165.012 112.832C165.012 112.878 164.95 112.954 164.834 113.064C163.857 114.004 162.981 114.989 162.193 116.01C161.411 117.031 161.039 117.732 161.083 118.121C161.083 118.179 161.128 118.202 161.217 118.191C161.294 118.191 161.438 118.08 161.66 117.866C162.21 117.321 162.964 116.393 163.924 115.082C164.989 113.458 165.638 112.438 165.877 112.02C166.26 111.243 166.754 110.437 167.364 109.585L167.697 109.144C167.697 109.115 167.708 109.086 167.741 109.051C167.769 109.005 167.791 108.952 167.808 108.889C167.897 108.703 167.93 108.61 167.919 108.61C167.886 108.628 167.813 108.715 167.697 108.865C167.575 109.005 167.414 109.208 167.209 109.469C166.998 109.718 166.643 110.083 166.143 110.559C165.638 111.023 165.211 111.278 164.856 111.324C164.518 111.371 164.235 111.284 164.013 111.069C163.791 110.855 163.669 110.617 163.636 110.35C163.608 110.072 163.724 109.643 163.991 109.051C164.257 108.465 164.612 107.822 165.056 107.126C165.5 106.418 166.105 105.734 166.876 105.084C167.658 104.423 168.485 103.983 169.361 103.762C169.905 103.809 170.277 103.959 170.471 104.203C170.482 104.191 170.521 104.174 170.582 104.156C170.654 104.145 170.793 104.203 171.004 104.342ZM165.655 109.329C165.966 109.254 166.487 108.86 167.231 108.146C167.985 107.421 168.657 106.708 169.25 106.012C169.839 105.316 170.127 104.922 170.116 104.829C170.116 104.8 170.094 104.794 170.049 104.806C169.395 105.038 168.701 105.496 167.963 106.175C167.22 106.859 166.637 107.508 166.21 108.123C165.777 108.744 165.572 109.132 165.589 109.283C165.589 109.318 165.611 109.329 165.655 109.329Z" fill="#D75B5B"/>
<path d="M180.007 99.0362C180.107 99.0246 180.19 99.0362 180.251 99.0826C180.456 99.2682 180.567 99.4422 180.584 99.593C180.595 99.7321 180.567 99.8597 180.495 99.9641C180.434 100.074 180.362 100.208 180.273 100.358C180.195 100.498 180.007 100.701 179.696 100.962C179.396 101.211 179.097 101.356 178.786 101.402C178.564 101.402 178.437 101.275 178.409 101.008C178.364 100.608 178.542 100.19 178.941 99.7553C179.352 99.3262 179.707 99.0826 180.007 99.0362ZM176.411 107.48C176.323 107.683 176.284 107.851 176.3 107.99C176.328 108.129 176.417 108.187 176.567 108.153C176.656 108.153 176.8 108.106 177.011 108.013C179.213 106.378 181.338 104.528 183.38 102.469C183.513 102.551 183.585 102.655 183.602 102.794C183.613 102.922 183.563 103.049 183.447 103.188C183.341 103.328 183.186 103.531 182.981 103.792C182.77 104.058 182.37 104.522 181.782 105.183C181.188 105.85 180.639 106.459 180.14 107.016C178.819 108.472 177.815 109.353 177.122 109.66C176.9 109.765 176.656 109.846 176.389 109.892C175.424 110.014 174.88 109.533 174.747 108.431C174.686 108.013 174.825 107.387 175.169 106.552C175.507 105.705 175.879 104.946 176.278 104.279C176.678 103.6 176.95 103.223 177.099 103.142C177.305 102.956 177.532 102.852 177.787 102.817C178.054 102.771 178.309 102.788 178.564 102.864C178.653 102.898 178.697 102.951 178.697 103.026C178.708 103.09 178.664 103.2 178.564 103.351C178.459 103.507 178.303 103.739 178.098 104.047C177.887 104.36 177.577 104.882 177.166 105.624C176.767 106.366 176.511 106.987 176.411 107.48Z" fill="#D75B5B"/>
<path d="M187.454 101.344C187.554 101.332 187.726 101.361 187.965 101.436C188.215 101.5 188.348 101.599 188.364 101.738C188.375 101.831 188.353 101.924 188.298 102.016L187.144 104.29C186.994 104.522 186.922 104.655 186.922 104.684C186.933 104.701 186.95 104.707 186.966 104.707L187.055 104.614C188.387 103.379 189.474 102.283 190.317 101.32C190.462 101.17 190.595 101.083 190.717 101.065C190.85 101.054 190.939 101.054 190.983 101.065L191.538 101.158C191.671 101.204 191.743 101.286 191.76 101.39C191.771 101.5 191.76 101.593 191.716 101.668C191.505 101.993 191.272 102.353 191.005 102.735C190.739 103.124 190.539 103.42 190.406 103.617C190.284 103.82 190.14 104.046 189.962 104.29C189.796 104.539 189.679 104.73 189.607 104.87C189.546 104.997 189.474 105.142 189.385 105.31C189.308 105.467 189.263 105.606 189.252 105.728C189.208 106.041 189.197 106.302 189.23 106.517C189.241 106.627 189.319 106.673 189.452 106.656C189.596 106.644 189.851 106.517 190.206 106.285C190.573 106.053 191.005 105.716 191.494 105.264C191.993 104.8 192.648 104.162 193.447 103.339C194.257 102.504 194.967 101.796 195.577 101.204C195.694 101.286 195.76 101.39 195.777 101.529C195.788 101.657 195.755 101.779 195.666 101.9C195.311 102.382 194.85 102.967 194.29 103.663C193.741 104.359 192.897 105.31 191.76 106.517C190.634 107.723 189.818 108.361 189.319 108.419C188.342 108.558 187.787 108.082 187.654 106.98C187.593 106.58 187.682 106.134 187.921 105.635L188.608 104.336C188.664 104.214 188.697 104.145 188.697 104.127C188.697 104.116 188.658 104.139 188.586 104.197C186.617 106.424 185.357 107.746 184.813 108.164C184.708 108.245 184.58 108.291 184.436 108.303C184.009 108.367 183.77 108.198 183.726 107.792C183.715 107.653 183.726 107.526 183.77 107.398C184.614 106.395 185.18 105.583 185.479 104.962C185.746 104.591 186.012 104.104 186.278 103.501C186.545 102.886 186.772 102.376 186.966 101.97C187.155 101.57 187.321 101.361 187.454 101.344Z" fill="#D75B5B"/>
<path d="M201.84 99.9949C201.513 100.041 201.003 100.47 200.309 101.271C199.61 102.077 199.272 102.558 199.288 102.709C199.288 102.744 199.31 102.755 199.355 102.755C199.621 102.726 200.12 102.332 200.864 101.572C201.619 100.818 201.979 100.314 201.951 100.064C201.951 100.006 201.913 99.9833 201.84 99.9949ZM198.578 106.884C197.602 107.023 197.036 106.467 196.891 105.214C196.786 104.443 197.002 103.567 197.535 102.593C198.079 101.619 198.761 100.801 199.577 100.134C200.403 99.4555 201.158 99.067 201.84 98.9742C202.151 98.9278 202.445 99.0148 202.728 99.2294C203.006 99.4323 203.161 99.6585 203.194 99.9021C203.25 100.337 203.017 100.871 202.484 101.503C201.963 102.123 201.402 102.651 200.797 103.08C200.187 103.515 199.782 103.747 199.577 103.776C199.366 103.793 199.199 103.706 199.066 103.521C199.022 103.492 198.955 103.486 198.867 103.498C198.778 103.498 198.65 103.695 198.489 104.077C198.323 104.466 198.251 104.768 198.267 104.982C198.295 105.203 198.389 105.319 198.556 105.33C199.532 105.208 200.537 104.773 201.574 104.031C202.623 103.289 204.049 102.054 205.857 100.32C205.991 100.198 206.179 100.012 206.434 99.7629C206.701 99.5019 206.856 99.3453 206.9 99.299C207.034 99.3801 207.106 99.4845 207.122 99.6237C207.133 99.7513 207.089 99.8731 206.989 99.9949C206.423 100.755 205.691 101.613 204.792 102.57C203.888 103.515 202.828 104.443 201.619 105.353C200.42 106.27 199.405 106.774 198.578 106.884Z" fill="#D75B5B"/>
<path d="M212.609 98.5433C212.282 98.5897 211.772 99.0189 211.078 99.8192C210.379 100.625 210.041 101.107 210.057 101.257C210.057 101.292 210.079 101.304 210.124 101.304C210.39 101.275 210.889 100.88 211.633 100.121C212.388 99.3668 212.748 98.8623 212.72 98.6129C212.72 98.5549 212.682 98.5317 212.609 98.5433ZM209.347 105.433C208.371 105.572 207.805 105.015 207.66 103.763C207.555 102.991 207.771 102.116 208.304 101.141C208.848 100.167 209.53 99.3494 210.346 98.6825C211.172 98.004 211.927 97.6155 212.609 97.5227C212.92 97.4763 213.214 97.5633 213.497 97.7778C213.775 97.9808 213.93 98.207 213.963 98.4505C214.019 98.8855 213.786 99.419 213.253 100.051C212.731 100.672 212.171 101.199 211.566 101.629C210.956 102.063 210.551 102.295 210.346 102.324C210.135 102.342 209.968 102.255 209.835 102.069C209.791 102.04 209.724 102.034 209.636 102.046C209.547 102.046 209.419 102.243 209.258 102.626C209.092 103.015 209.02 103.316 209.036 103.531C209.064 103.751 209.158 103.867 209.325 103.879C210.301 103.757 211.306 103.322 212.343 102.58C213.392 101.837 214.818 100.602 216.626 98.8681C216.76 98.7463 216.948 98.5607 217.203 98.3114C217.47 98.0504 217.625 97.8938 217.669 97.8474C217.803 97.9286 217.875 98.033 217.891 98.1722C217.902 98.2998 217.858 98.4216 217.758 98.5433C217.192 99.303 216.46 100.161 215.561 101.118C214.657 102.063 213.597 102.991 212.388 103.902C211.189 104.818 210.174 105.323 209.347 105.433Z" fill="#D75B5B"/>
<path d="M218.474 100.061C219.095 99.4753 219.75 98.8316 220.449 98.1357C220.005 97.9037 219.717 97.6601 219.583 97.3934C219.522 97.3006 219.484 97.231 219.472 97.1846C219.439 96.9236 219.506 96.7439 219.672 96.6511C219.833 96.5467 220.099 96.4655 220.471 96.4191C220.604 96.4075 221.032 96.5293 221.758 96.7903C222.48 97.057 222.935 97.1788 223.112 97.1614C223.301 97.1324 223.556 97.0396 223.867 96.883C224.177 96.7149 224.427 96.6221 224.621 96.6047C224.827 96.5757 224.982 96.5989 225.087 96.6743C225.442 97.0628 225.625 97.3006 225.642 97.3934C225.653 97.4862 225.625 97.5731 225.553 97.6485C225.476 97.7123 225.243 97.9385 224.843 98.3212C224.455 98.6924 224.072 99.0751 223.689 99.4579C223.317 99.8464 222.968 100.27 222.646 100.734C222.335 101.198 222.191 101.557 222.224 101.801C222.224 101.847 222.252 101.865 222.313 101.847C222.99 101.754 225.121 99.9914 228.705 96.5583C228.794 96.5467 228.843 96.6221 228.86 96.7903C228.888 96.9642 228.461 97.6021 227.573 98.7156C226.696 99.829 225.687 100.937 224.532 102.033C223.378 103.135 222.518 103.72 221.958 103.796C221.07 103.9 220.571 103.494 220.471 102.566C220.393 102.073 220.493 101.569 220.76 101.058C221.037 100.548 221.647 99.829 222.579 98.9012C222.358 98.936 222.052 98.9186 221.67 98.8548C221.298 98.7794 221.054 98.6692 220.937 98.53C220.638 98.8896 220.122 99.4695 219.384 100.27C219.217 100.444 218.984 100.548 218.674 100.595C218.374 100.641 218.23 100.618 218.23 100.525C218.219 100.421 218.296 100.264 218.474 100.061Z" fill="#D75B5B"/>
<path d="M235.425 91.5665C235.525 91.5549 235.608 91.5665 235.669 91.6129C235.874 91.7985 235.985 91.9725 236.002 92.1233C236.013 92.2624 235.985 92.39 235.913 92.4944C235.852 92.6046 235.78 92.738 235.691 92.8887C235.613 93.0279 235.425 93.2309 235.114 93.4919C234.814 93.7412 234.515 93.8862 234.204 93.9326C233.982 93.9326 233.854 93.805 233.827 93.5383C233.782 93.1381 233.96 92.7206 234.359 92.2856C234.77 91.8565 235.125 91.6129 235.425 91.5665ZM231.829 100.01C231.741 100.213 231.702 100.381 231.718 100.52C231.746 100.66 231.835 100.718 231.985 100.683C232.074 100.683 232.218 100.636 232.429 100.544C234.631 98.9083 236.756 97.0584 238.798 94.9997C238.931 95.0808 239.003 95.1852 239.02 95.3244C239.031 95.452 238.981 95.5796 238.865 95.7188C238.759 95.8579 238.604 96.0609 238.399 96.3219C238.188 96.5886 237.788 97.0526 237.2 97.7137C236.606 98.3806 236.057 98.9895 235.558 99.5462C234.237 101.002 233.233 101.883 232.54 102.191C232.318 102.295 232.074 102.376 231.807 102.423C230.842 102.544 230.298 102.063 230.165 100.961C230.104 100.544 230.243 99.9174 230.587 99.0823C230.925 98.2356 231.297 97.4759 231.696 96.809C232.096 96.1305 232.368 95.7535 232.517 95.6724C232.723 95.4868 232.95 95.3824 233.205 95.3476C233.472 95.3012 233.727 95.3186 233.982 95.394C234.071 95.4288 234.115 95.481 234.115 95.5564C234.126 95.6202 234.082 95.7304 233.982 95.8811C233.877 96.0377 233.721 96.2697 233.516 96.577C233.305 96.8902 232.995 97.4121 232.584 98.1544C232.184 98.8967 231.929 99.5172 231.829 100.01Z" fill="#D75B5B"/>
<path d="M242.872 93.874C242.972 93.8624 243.144 93.8914 243.383 93.9668C243.633 94.0306 243.766 94.1291 243.782 94.2683C243.793 94.3611 243.771 94.4539 243.716 94.5467L242.562 96.82C242.412 97.0519 242.34 97.1853 242.34 97.2143C242.351 97.2317 242.368 97.2375 242.384 97.2375L242.473 97.1447C243.805 95.9095 244.892 94.8134 245.735 93.8508C245.88 93.7 246.013 93.613 246.135 93.5956C246.268 93.584 246.357 93.584 246.401 93.5956L246.956 93.6884C247.089 93.7348 247.161 93.816 247.178 93.9204C247.189 94.0306 247.178 94.1233 247.134 94.1987C246.923 94.5235 246.69 94.883 246.423 95.2658C246.157 95.6543 245.957 95.9501 245.824 96.1473C245.702 96.3502 245.558 96.5764 245.38 96.82C245.214 97.0693 245.097 97.2607 245.025 97.3999C244.964 97.5275 244.892 97.6724 244.803 97.8406C244.726 97.9972 244.681 98.1364 244.67 98.2582C244.626 98.5713 244.615 98.8323 244.648 99.0469C244.659 99.157 244.737 99.2034 244.87 99.186C245.014 99.1744 245.269 99.0469 245.624 98.8149C245.991 98.5829 246.423 98.2466 246.912 97.7942C247.411 97.3303 248.066 96.6924 248.865 95.8689C249.675 95.0338 250.385 94.3263 250.995 93.7348C251.112 93.816 251.178 93.9204 251.195 94.0595C251.206 94.1871 251.173 94.3089 251.084 94.4307C250.729 94.912 250.268 95.4977 249.708 96.1937C249.159 96.8896 248.315 97.8406 247.178 99.0469C246.052 100.253 245.236 100.891 244.737 100.949C243.76 101.088 243.205 100.613 243.072 99.5108C243.011 99.1106 243.1 98.6641 243.338 98.1654L244.026 96.8664C244.082 96.7446 244.115 96.675 244.115 96.6576C244.115 96.646 244.076 96.6692 244.004 96.7272C242.035 98.9541 240.775 100.276 240.231 100.694C240.126 100.775 239.998 100.821 239.854 100.833C239.427 100.897 239.188 100.729 239.144 100.323C239.133 100.183 239.144 100.056 239.188 99.9283C240.032 98.9251 240.598 98.1132 240.897 97.4927C241.164 97.1215 241.43 96.6344 241.696 96.0313C241.963 95.4166 242.19 94.9062 242.384 94.5003C242.573 94.1001 242.739 93.8914 242.872 93.874Z" fill="#D75B5B"/>
<path d="M258.501 92.5484C258.707 92.6759 258.817 92.7977 258.834 92.9195C258.845 93.0471 258.812 93.1689 258.723 93.2907C258.634 93.4182 258.146 94.3055 257.258 95.9583C256.371 97.6169 255.771 98.7535 255.461 99.3682C255.161 99.9829 254.95 100.435 254.817 100.714C254.695 100.992 254.445 101.491 254.063 102.221C253.674 102.946 253.269 103.602 252.842 104.193C252.426 104.796 251.921 105.388 251.311 105.979C250.689 106.565 250.079 106.965 249.469 107.186C249.202 107.215 248.936 107.191 248.67 107.116C248.126 106.977 247.815 106.594 247.738 105.979C247.649 105.202 248.226 104.205 249.469 102.987C250.711 101.763 251.677 101.108 252.354 101.015C252.454 100.998 252.509 101.004 252.509 101.038C252.509 101.085 252.448 101.16 252.332 101.27C251.355 102.21 250.478 103.196 249.691 104.216C248.908 105.237 248.537 105.939 248.581 106.327C248.581 106.385 248.625 106.408 248.714 106.397C248.792 106.397 248.936 106.287 249.158 106.072C249.707 105.527 250.462 104.599 251.422 103.288C252.487 101.665 253.136 100.644 253.375 100.226C253.757 99.4494 254.251 98.6433 254.862 97.7908L255.194 97.3501C255.194 97.3211 255.206 97.2921 255.239 97.2573C255.267 97.2109 255.289 97.1587 255.305 97.0949C255.394 96.9094 255.427 96.8166 255.416 96.8166C255.383 96.834 255.311 96.921 255.194 97.0717C255.072 97.2109 254.912 97.4139 254.706 97.6749C254.495 97.9242 254.14 98.2896 253.641 98.7651C253.136 99.229 252.709 99.4842 252.354 99.5306C252.015 99.577 251.732 99.49 251.51 99.2754C251.288 99.0609 251.166 98.8231 251.133 98.5563C251.105 98.278 251.222 97.8488 251.488 97.2573C251.755 96.6716 252.11 96.0279 252.553 95.332C252.997 94.6245 253.602 93.9402 254.373 93.2907C255.156 92.6296 255.982 92.1888 256.859 91.9684C257.403 92.0148 257.774 92.1656 257.969 92.4092C257.98 92.3976 258.019 92.3802 258.08 92.3628C258.152 92.3512 258.29 92.4092 258.501 92.5484ZM253.153 97.5357C253.463 97.4603 253.985 97.0659 254.728 96.3526C255.483 95.6277 256.154 94.9144 256.748 94.2185C257.336 93.5226 257.625 93.1283 257.614 93.0355C257.614 93.0065 257.591 93.0007 257.547 93.0123C256.892 93.2443 256.199 93.7024 255.461 94.3809C254.717 95.0652 254.135 95.7147 253.708 96.3294C253.275 96.95 253.069 97.3385 253.086 97.4893C253.086 97.5241 253.108 97.5357 253.153 97.5357Z" fill="#D75B5B"/>
</svg>
